<svg width="27" height="27" viewBox="0 0 27 27" fill="none" xmlns="http://www.w3.org/2000/svg">
<path d="M18.92 0H7.74667C2.89333 0 0 2.89333 0 7.74667V18.9067C0 23.7733 2.89333 26.6667 7.74667 26.6667H18.9067C23.76 26.6667 26.6533 23.7733 26.6533 18.92V7.74667C26.6667 2.89333 23.7733 0 18.92 0ZM8.66667 5.84C10.04 5.84 11.1733 6.96 11.1733 8.34667C11.1733 9.73333 10.0533 10.8533 8.66667 10.8533C7.28 10.8533 6.16 9.70667 6.16 8.33333C6.16 6.96 7.29333 5.84 8.66667 5.84ZM13.3333 22.7733C9.74667 22.7733 6.82667 19.8533 6.82667 16.2667C6.82667 15.3333 7.58667 14.56 8.52 14.56H18.12C19.0533 14.56 19.8133 15.32 19.8133 16.2667C19.84 19.8533 16.92 22.7733 13.3333 22.7733ZM18 10.8267C16.6267 10.8267 15.4933 9.70667 15.4933 8.32C15.4933 6.93333 16.6133 5.81333 18 5.81333C19.3867 5.81333 20.5067 6.93333 20.5067 8.32C20.5067 9.70667 19.3733 10.8267 18 10.8267Z" fill="#FDFDFD"/>
</svg>
