<svg width="28" height="24" viewBox="0 0 28 24" fill="none" xmlns="http://www.w3.org/2000/svg">
<path d="M25.8667 3.89333C25.32 3.6 24.1733 3.29333 22.6133 4.38667L20.6533 5.77333C20.5067 1.62667 18.7067 0 14.3333 0H6.33333C1.77333 0 0 1.77333 0 6.33333V17C0 20.0667 1.66667 23.3333 6.33333 23.3333H14.3333C18.7067 23.3333 20.5067 21.7067 20.6533 17.56L22.6133 18.9467C23.44 19.5333 24.16 19.72 24.7333 19.72C25.2267 19.72 25.6133 19.5733 25.8667 19.44C26.4133 19.16 27.3333 18.4 27.3333 16.4933V6.84C27.3333 4.93333 26.4133 4.17333 25.8667 3.89333ZM12.3333 10.84C10.96 10.84 9.82667 9.72 9.82667 8.33333C9.82667 6.94667 10.96 5.82667 12.3333 5.82667C13.7067 5.82667 14.84 6.94667 14.84 8.33333C14.84 9.72 13.7067 10.84 12.3333 10.84Z" fill="#FDFDFD"/>
</svg>
